<?xml version="1.0" encoding="UTF-8" standalone="no"?>
<svg
   width="800px"
   height="800px"
   viewBox="0 0 24 24"
   version="1.1"
   id="svg3149"
   xmlns="http://www.w3.org/2000/svg"
   xmlns:svg="http://www.w3.org/2000/svg"
   xmlns:rdf="http://www.w3.org/1999/02/22-rdf-syntax-ns#"
   xmlns:cc="http://creativecommons.org/ns#"
   xmlns:dc="http://purl.org/dc/elements/1.1/">
  <defs
     id="defs3153" />
  <!-- Uploaded to: SVG Repo, www.svgrepo.com, Generator: SVG Repo Mixer Tools -->
  <title
     id="title3142">ic_fluent_convert_to_text_24_regular</title>
  <desc
     id="desc3144">Created with Sketch.</desc>
  <g
     id="ðŸ”-Product-Icons"
     stroke="none"
     stroke-width="1"
     fill="none"
     fill-rule="evenodd">
    <g
       id="ic_fluent_convert_to_text_24_regular"
       fill="#212121"
       fill-rule="nonzero">
      <path
         d="M2.74694234,15 C3.1266381,15 3.4404333,15.2821539 3.49009572,15.6482294 L3.49694234,15.75 L3.49694234,19.2523354 L3.50339594,19.3801406 C3.56314094,19.9684394 4.03083834,20.4361368 4.6191371,20.4958818 L4.74694234,20.5023354 L8.24694234,20.5023354 L8.34871289,20.509182 C8.71478845,20.5588444 8.99694234,20.8726396 8.99694234,21.2523354 C8.99694234,21.6320311 8.71478845,21.9458263 8.34871289,21.9954888 L8.24694234,22.0023354 L4.74694234,22.0023354 L4.57942,21.9973166 C3.19627785,21.9142027 2.08875721,20.8087621 2.00236859,19.4265053 L1.99694234,19.2523354 L1.99694234,15.75 L2.00378895,15.6482294 C2.05345137,15.2821539 2.36724657,15 2.74694234,15 Z M21.2469423,15 C21.6266381,15 21.9404333,15.2821539 21.9900957,15.6482294 L21.9969423,15.75 L21.9969423,19.2523354 C21.9969423,20.7148672 20.8552377,21.9107397 19.4144647,21.9973166 L19.2469423,22.0023354 L15.7469423,22.0023354 C15.3327288,22.0023354 14.9969423,21.6665489 14.9969423,21.2523354 C14.9969423,20.8726396 15.2790962,20.5588444 15.6451718,20.509182 L15.7469423,20.5023354 L19.2469423,20.5023354 C19.894151,20.5023354 20.4264762,20.0104607 20.4904887,19.3801406 L20.4969423,19.2523354 L20.4969423,15.75 C20.4969423,15.3357864 20.8327288,15 21.2469423,15 Z M12.2549721,15.5 C12.6691857,15.5 13.0049721,15.8357864 13.0049721,16.25 C13.0049721,16.6296958 12.7228182,16.943491 12.3567426,16.9931534 L12.2549721,17 L7.75,17 C7.33578644,17 7,16.6642136 7,16.25 C7,15.8703042 7.28215388,15.556509 7.64822944,15.5068466 L7.75,15.5 L12.2549721,15.5 Z M16.25,11.25 C16.6642136,11.25 17,11.5857864 17,12 C17,12.3796958 16.7178461,12.693491 16.3517706,12.7431534 L16.25,12.75 L7.75,12.75 C7.33578644,12.75 7,12.4142136 7,12 C7,11.6203042 7.28215388,11.306509 7.64822944,11.2568466 L7.75,11.25 L16.25,11.25 Z M8.24694234,2 C8.6611559,2 8.99694234,2.33578644 8.99694234,2.75 C8.99694234,3.12969577 8.71478845,3.44349096 8.34871289,3.49315338 L8.24694234,3.5 L4.74694234,3.5 C4.09973364,3.5 3.56740844,3.99187466 3.50339594,4.62219476 L3.49694234,4.75 L3.49694234,8.25233538 C3.49694234,8.66654894 3.1611559,9.00233538 2.74694234,9.00233538 C2.36724657,9.00233538 2.05345137,8.7201815 2.00378895,8.35410594 L1.99694234,8.25233538 L1.99694234,4.75 C1.99694234,3.28746816 3.13864693,2.09159572 4.57942,2.00501879 L4.74694234,2 L8.24694234,2 Z M19.2469423,2 L19.4144647,2.00501879 C20.7976068,2.08813264 21.9051275,3.19357324 21.9915161,4.57583007 L21.9969423,4.75 L21.9969423,8.25233538 L21.9900957,8.35410594 C21.9404333,8.7201815 21.6266381,9.00233538 21.2469423,9.00233538 C20.8672466,9.00233538 20.5534514,8.7201815 20.503789,8.35410594 L20.4969423,8.25233538 L20.4969423,4.75 L20.4904887,4.62219476 C20.4307437,4.033896 19.9630463,3.5661986 19.3747476,3.50645361 L19.2469423,3.5 L15.7469423,3.5 L15.6451718,3.49315338 C15.2790962,3.44349096 14.9969423,3.12969577 14.9969423,2.75 C14.9969423,2.37030423 15.2790962,2.05650904 15.6451718,2.00684662 L15.7469423,2 L19.2469423,2 Z M16.25,7 C16.6642136,7 17,7.33578644 17,7.75 C17,8.12969577 16.7178461,8.44349096 16.3517706,8.49315338 L16.25,8.5 L7.75,8.5 C7.33578644,8.5 7,8.16421356 7,7.75 C7,7.37030423 7.28215388,7.05650904 7.64822944,7.00684662 L7.75,7 L16.25,7 Z"
         id="ðŸŽ¨-Color" />
    </g>
  </g>
  <path
     style="fill:#00dfb9;fill-rule:evenodd;stroke-width:3.38983"
     d="m 699.35658,296.33574 c -13.06184,-4.83189 -14.61082,-13.4397 -14.61082,-81.1938 0,-100.60297 1.25401,-99.36781 -102.5219,-100.98037 -67.48809,-1.04868 -70.52401,-1.38604 -75.42373,-8.38137 -7.03597,-10.045255 -6.38908,-21.445489 1.67445,-29.509014 6.36507,-6.365072 11.29943,-6.779661 80.69036,-6.779661 72.71532,0 74.19545,0.141899 91.51738,8.773784 22.05772,10.991827 40.01109,31.664531 46.5127,53.557811 5.85825,19.72689 7.2195,144.15207 1.6901,154.48386 -4.33744,8.10456 -20.18261,13.48605 -29.52854,10.02876 z"
     id="path3224"
     transform="scale(0.03)" />
  <path
     style="fill:#00dfb9;fill-rule:evenodd;stroke-width:3.38983"
     d="m 248.54637,279.02124 c -4.06221,-1.96391 -9.24515,-8.05952 -11.51763,-13.54579 -3.58317,-8.65052 -3.22905,-11.18417 2.66692,-19.08117 l 6.79872,-9.10614 H 400 553.50562 l 6.79872,9.10614 c 5.88912,7.88783 6.24756,10.43676 2.67909,19.0518 -2.26579,5.47011 -7.90186,11.66895 -12.52459,13.77521 -11.26551,5.13291 -291.26541,4.94738 -301.91247,-0.20004 z"
     id="path3226"
     transform="scale(0.03)" />
  <path
     style="fill:#00dfb9;fill-rule:evenodd;stroke-width:3.38983"
     d="m 82.424989,296.55492 c -4.073036,-1.62369 -9.030663,-5.98877 -11.016949,-9.70018 -5.814618,-10.86471 -4.700586,-134.49901 1.396943,-155.03162 6.556482,-22.07807 25.961854,-44.327775 47.345497,-54.285151 16.33523,-7.60656 20.58982,-7.981764 90.86647,-8.013329 69.23313,-0.0311 74.14221,0.380281 80.50847,6.746546 7.94143,7.941429 8.74529,19.740108 1.97669,29.013124 -4.41291,6.04571 -10.53825,6.71988 -75.42373,8.30125 -105.01745,2.55946 -102.82414,0.4024 -102.82414,101.1248 0,59.4974 -0.71022,68.41079 -5.93221,74.45005 -7.38055,8.53566 -17.23704,11.2454 -26.897041,7.39451 z"
     id="path3228"
     transform="scale(0.03)" />
  <path
     style="fill:#00dfb9;fill-rule:evenodd;stroke-width:3.38983"
     d="m 240.924,413.10217 c -8.78966,-11.17424 -8.78966,-15.0301 0,-26.20434 l 7.0257,-8.93173 H 400 552.05031 l 7.02569,8.93173 c 8.78966,11.17424 8.78966,15.0301 0,26.20434 l -7.02569,8.93173 H 400 247.9497 Z"
     id="path3230"
     transform="scale(0.03)" />
  <path
     style="fill:#00dfb9;fill-rule:evenodd;stroke-width:3.38983"
     d="m 240.924,555.47505 c -8.12691,-10.33169 -8.31561,-11.64702 -3.26206,-22.73836 6.53132,-14.33469 15.51607,-15.78754 97.63363,-15.78754 73.11949,0 77.8379,0.38421 86.28118,7.0257 6.49299,5.10738 8.93172,10.14551 8.93172,18.45185 0,21.01293 -4.3479,21.98008 -98.8133,21.98008 H 247.9497 Z"
     id="path3232"
     transform="scale(0.03)" />
  <path
     style="fill:#00dfb9;fill-rule:evenodd;stroke-width:3.38983"
     d="m 508.47458,723.72881 c -7.94143,-7.94142 -8.74529,-19.7401 -1.97669,-29.01312 4.41291,-6.04571 10.53825,-6.71988 75.42373,-8.30125 104.33249,-2.54277 102.82414,-1.04249 102.82414,-102.27418 0,-53.96154 0.94168,-67.02702 5.27697,-73.21651 6.89848,-9.84896 25.90142,-10.25384 35.401,-0.75426 6.32354,6.32355 6.77966,11.29944 6.77966,73.96102 0,76.75694 -3.06603,92.79105 -21.96556,114.87089 -6.57185,7.67773 -19.87183,17.90771 -29.55551,22.73329 -17.32193,8.63189 -18.80206,8.77378 -91.51738,8.77378 -69.39093,0 -74.32529,-0.41459 -80.69036,-6.77966 z"
     id="path3234"
     transform="scale(0.03)" />
  <path
     style="fill:#00dfb9;fill-rule:evenodd;stroke-width:3.38983"
     d="m 116.65484,583.05085 c 0.004,-33.55932 0.51085,-46.82962 1.12732,-29.48956 0.61647,17.34007 0.61356,44.7977 -0.006,61.01695 -0.62003,16.21926 -1.12442,2.03193 -1.12086,-31.52739 z"
     id="path3236"
     transform="scale(0.03)" />
  <path
     style="fill:#00dfb9;fill-rule:evenodd;stroke-width:3.38983"
     d="M 120.15048,722.46203 C 110.68615,718.05493 97.371349,707.89102 90.413094,699.76186 70.865339,676.92471 67.79661,661.33755 67.79661,584.88476 c 0,-76.80823 1.364623,-81.49493 23.728814,-81.49493 22.399986,0 23.728816,4.60763 23.728816,82.27853 0,77.39752 1.65301,83.67503 24.80107,94.18459 12.33661,5.60101 22.67293,6.44852 79.43622,6.51328 60.67961,0.0692 65.72952,0.54973 72.03389,6.85411 3.72882,3.72881 6.77966,10.59322 6.77966,15.25424 0,4.66101 -3.05084,11.52542 -6.77966,15.25423 -6.36626,6.36627 -11.27534,6.77764 -80.50847,6.74655 -70.27665,-0.0315 -74.53124,-0.40677 -90.86647,-8.01333 z"
     id="path3238"
     transform="scale(0.03)" />
  <metadata
     id="metadata3304">
    <rdf:RDF>
      <cc:Work
         rdf:about="">
        <dc:title>ic_fluent_convert_to_text_24_regular</dc:title>
      </cc:Work>
    </rdf:RDF>
  </metadata>
</svg>
